<svg xmlns="http://www.w3.org/2000/svg" viewBox="0 0 64 64" width="64" height="64">
  <rect width="64" height="64" rx="14" fill="#274185" />
  <g transform="translate(13.3,11.9) scale(0.42)" fill="white" stroke="white">
    <path d="M41.5892 95.1839H29.0892L31.7513 83.4339C24.6459 80.2003 19.0445 76.268 13.5892 70.6839C7.96976 64.9319 5.58917 55.1839 5.58917 55.1839L1.08917 54.6839L10.0892 45.6839L20.5892 54.6839L15.5892 55.1839C15.5892 55.1839 19.8128 62.3475 23.5892 65.6839C27.2111 68.884 29.7803 70.3081 34.4134 71.6839L43.5892 31.1839L55.0892 32.6839L41.5892 95.1839Z" />
    <path d="M10.5892 40.1839L5.58917 43.1839C5.58917 43.1839 6.63271 38.3359 10.0892 33.6839C13.2406 29.4425 17.0666 25.5091 22.0892 22.6839C23.4667 21.9091 29.8641 18.8356 34.0892 17.6839C39.0486 16.332 43.3351 16.1725 47.5892 16.1839L49.5892 8.18393H44.5892L56.5892 0.683929L64.0892 12.1839L59.0892 10.6839L58.5892 17.1839C75.0025 20.8368 88.733 34.1755 87.5892 51.1839C86.8072 62.8114 81.4952 69.8038 72.0892 76.6839C64.1636 82.4812 48.0892 84.1839 48.0892 84.1839L51.0892 72.1839C51.0892 72.1839 71.5892 68.6839 75.0892 54.6839C78.2051 42.2202 66.0785 31.1957 53.5892 28.1839C44.5952 26.015 35.5006 26.7776 27.5892 31.6839C25.1351 33.2058 22.1264 35.2716 20.0892 37.6839C17.4466 40.813 16.0892 44.1839 16.0892 44.1839L10.5892 40.1839Z" />
  </g>
</svg>
